 <svg  version="1.0" xmlns="http://www.w3.org/2000/svg"  width="300.000000pt" height="300.000000pt" viewBox="0 0 300.000000 300.000000"  preserveAspectRatio="xMidYMid meet">  <g transform="translate(0.000000,300.000000) scale(0.100000,-0.100000)" fill="#000000" stroke="none"> <path d="M1460 2428 c-368 -102 -506 -141 -510 -145 -9 -8 23 -20 128 -47 l107 -27 -4 -81 c-2 -59 0 -83 10 -89 7 -4 49 -5 94 -2 111 8 196 -12 281 -67 19 -12 25 -10 55 12 52 38 93 48 205 48 l103 0 30 -62 c54 -116 62 -210 26 -319 -15 -45 -15 -49 16 -140 55 -164 47 -337 -22 -477 -39 -79 -138 -181 -241 -247 -82 -53 -96 -71 -78 -105 16 -30 57 -47 135 -54 145 -14 415 -80 543 -133 6 -2 12 0 12 6 0 24 -334 116 -512 140 -60 8 -82 16 -102 36 -14 14 -37 25 -51 25 -36 0 -25 13 57 67 39 26 97 71 128 100 61 56 170 207 202 280 29 65 39 149 28 218 -10 64 -67 190 -98 219 -19 17 -19 18 0 69 16 42 19 70 16 142 -3 79 -8 101 -39 165 -26 55 -34 85 -31 110 2 20 -5 57 -16 86 l-19 51 56 13 c31 7 61 15 67 17 16 6 24 -146 10 -169 -7 -12 -7 -21 0 -28 8 -8 8 -29 -2 -73 -18 -82 -18 -101 1 -94 8 4 17 2 19 -2 9 -15 56 0 56 18 0 9 -7 41 -15 71 -8 30 -12 67 -9 82 3 14 0 29 -5 33 -6 3 -11 42 -11 90 l0 83 36 9 c19 4 35 13 35 18 0 8 -479 160 -561 177 -14 3 -72 -8 -130 -24z m358 -60 c218 -64 243 -74 240 -92 -2 -16 -18 -23 -73 -37 l-70 -17 -60 29 c-56 27 -213 68 -262 69 -13 0 -23 -4 -23 -10 0 -5 15 -10 34 -10 42 0 214 -43 252 -63 28 -14 26 -15 -61 -23 -135 -13 -272 -9 -342 10 -99 26 -172 31 -216 13 -36 -15 -42 -15 -145 13 -59 16 -105 29 -102 30 60 18 568 158 575 159 6 1 119 -31 253 -71z m-238 -173 c69 -4 167 -2 218 2 l92 9 0 -26 c0 -15 7 -49 15 -76 8 -27 15 -50 15 -50 0 -1 -20 3 -43 8 -59 12 -173 -12 -242 -51 l-54 -30 -44 25 c-84 47 -248 66 -322 38 -15 -6 -17 -4 -12 10 4 10 10 43 13 74 9 90 0 85 127 78 61 -3 168 -8 237 -11z m-379 -65 l-9 -45 -1 37 c-1 20 2 44 6 54 11 29 14 2 4 -46z m727 -25 c0 -29 0 -29 -8 -5 -4 14 -8 36 -8 50 -1 23 0 23 8 5 5 -11 8 -33 8 -50z m163 -223 c-7 -2 -17 2 -21 8 -4 7 -12 10 -18 6 -9 -6 -8 1 14 99 6 27 8 23 23 -40 14 -59 14 -71 2 -73z m-31 -428 c40 -108 37 -216 -10 -322 -21 -47 -38 -54 -21 -9 5 14 15 62 21 107 13 92 2 186 -31 275 -18 49 -18 50 1 27 10 -13 28 -48 40 -78z m-329 -790 c9 -11 9 -14 0 -14 -18 0 -51 19 -51 29 0 13 37 2 51 -15z"/> <path d="M1147 1976 c-51 -105 -67 -204 -47 -293 10 -41 10 -41 -48 -100 -103 -106 -165 -259 -198 -490 -17 -119 -25 -405 -12 -418 9 -10 141 62 226 122 296 211 436 510 319 684 -29 43 -93 87 -137 95 -30 5 -25 1 30 -28 50 -26 71 -44 94 -81 96 -156 -9 -414 -247 -603 -71 -57 -254 -174 -271 -174 -12 0 -6 217 10 348 31 267 87 415 201 534 64 65 65 68 54 99 -26 76 -2 234 49 317 22 36 24 42 12 42 -5 0 -21 -24 -35 -54z"/> <path d="M1325 2011 c-72 -18 -125 -76 -145 -161 -45 -186 157 -344 318 -250 19 12 36 20 37 18 1 -2 15 -28 30 -58 l27 -54 19 34 c10 19 18 45 19 57 l0 23 39 -21 c84 -43 169 -33 241 28 71 61 91 129 65 228 -29 108 -87 158 -182 157 -81 -1 -176 -56 -195 -114 -3 -7 -20 5 -42 29 -60 67 -158 102 -231 84z m146 -38 c35 -18 66 -44 88 -74 l34 -46 22 41 c45 85 171 129 253 87 76 -39 122 -165 92 -255 -38 -115 -173 -170 -280 -113 -32 17 -46 32 -52 54 -14 55 -31 57 -65 10 -36 -52 -104 -87 -166 -87 -53 0 -135 39 -163 77 -75 101 -44 261 58 312 59 29 113 27 179 -6z m139 -318 c11 -21 11 -32 -1 -73 l-15 -47 -17 32 c-20 38 -21 66 -5 93 17 26 22 25 38 -5z"/> <path d="M1375 1868 c-27 -15 -35 -28 -35 -59 0 -52 69 -79 103 -41 20 22 22 75 5 90 -23 17 -52 22 -73 10z m60 -28 c27 -30 7 -70 -34 -70 -41 0 -59 32 -36 66 19 29 46 31 70 4z"/> <path d="M1742 1869 c-53 -20 -51 -101 3 -115 59 -15 104 41 72 90 -18 28 -44 36 -75 25z m49 -19 c37 -20 18 -80 -26 -80 -43 0 -63 58 -27 79 22 13 29 13 53 1z"/> <path d="M1403 688 c2 -7 15 -12 29 -10 14 2 33 -4 42 -14 24 -24 11 -30 -20 -10 -14 10 -28 16 -30 13 -7 -7 30 -35 51 -39 30 -5 32 36 3 56 -27 19 -82 22 -75 4z"/> <path d="M1585 679 c-10 -16 25 -49 52 -49 25 0 32 27 11 48 -15 15 -55 16 -63 1z m55 -14 c7 -9 10 -18 7 -21 -7 -8 -47 14 -47 26 0 15 26 12 40 -5z"/> <path d="M1186 669 c-144 -11 -306 -41 -452 -83 -141 -41 -217 -69 -222 -84 -2 -6 32 3 75 19 164 64 419 118 636 135 82 6 90 5 112 -16 39 -37 97 -14 60 24 -18 18 -37 18 -209 5z m194 -14 c7 -9 10 -18 7 -21 -7 -8 -47 14 -47 26 0 15 26 12 40 -5z"/> </g> </svg> 